<?xml version="1.0" encoding="UTF-8"?>
<svg xmlns="http://www.w3.org/2000/svg" xmlns:xlink="http://www.w3.org/1999/xlink" width="3000.5" height="1091.5" viewBox="0 0 3000.5 1091.5">
<defs>
<clipPath id="clip-0">

</clipPath>
<clipPath id="clip-1">
<path clip-rule="nonzero" d="M 0.238281 490 L 3000.238281 490 L 3000.238281 1091.0625 L 0.238281 1091.0625 Z M 0.238281 490 "/>
</clipPath>
<clipPath id="clip-2">
<path clip-rule="nonzero" d="M 0.238281 432 L 3000.238281 432 L 3000.238281 1091.0625 L 0.238281 1091.0625 Z M 0.238281 432 "/>
</clipPath>
<clipPath id="clip-3">
<path clip-rule="nonzero" d="M 0.238281 490 L 3000.238281 490 L 3000.238281 1091.0625 L 0.238281 1091.0625 Z M 0.238281 490 "/>
</clipPath>
</defs>
<g clip-path="url(#clip-0)">
<path fill-rule="evenodd" fill="rgb(97.65625%, 79.6875%, 61.71875%)" fill-opacity="1" d="M 3000.238281 630.996094 C 3000.238281 630.996094 2565.929688 607.765625 2098.921875 556.363281 C 1744.339844 517.335938 1551.210938 319.246094 1335.421875 319.246094 C 880.160156 319.246094 0.238281 662.59375 0.238281 662.59375 L 0.238281 1091.0625 L 3000.238281 1091.0625 L 3000.238281 630.996094 "/>
</g>
<g clip-path="url(#clip-1)">
<path fill-rule="evenodd" fill="rgb(75.584412%, 50.78125%, 26.292419%)" fill-opacity="1" d="M 3000.238281 591.011719 C 3000.238281 591.011719 2730.539062 481.429688 2505.289062 490.894531 C 2271.28125 500.730469 1610.96875 702.28125 1361.238281 712.191406 C 972.898438 727.597656 0.238281 591.011719 0.238281 591.011719 L 0.238281 1091.0625 L 3000.238281 1091.0625 L 3000.238281 591.011719 "/>
</g>
<g clip-path="url(#clip-2)">
<path fill-rule="evenodd" fill="rgb(100%, 100%, 100%)" fill-opacity="1" d="M 3000.238281 625.902344 C 3000.238281 625.902344 2549.808594 756.898438 2320.390625 738.867188 C 1911.820312 706.761719 902.675781 452.074219 515.980469 433.246094 C 320.632812 423.734375 0.238281 547.417969 0.238281 547.417969 L 0.238281 1091.0625 L 3000.238281 1091.0625 L 3000.238281 625.902344 "/>
</g>
<g clip-path="url(#clip-3)">
<path fill-rule="evenodd" fill="rgb(100%, 49.705505%, 0%)" fill-opacity="1" d="M 3000.238281 666.59375 C 3000.238281 666.59375 2549.808594 786.132812 2320.390625 769.679688 C 1911.820312 740.378906 902.675781 507.972656 515.980469 490.789062 C 320.632812 482.113281 0.238281 594.972656 0.238281 594.972656 L 0.238281 1091.0625 L 3000.238281 1091.0625 L 3000.238281 666.59375 "/>
</g>
</svg>
