<?xml version="1.0" encoding="UTF-8"?>
<svg xmlns="http://www.w3.org/2000/svg" xmlns:xlink="http://www.w3.org/1999/xlink" width="3000.5" height="1091.5" viewBox="0 0 3000.5 1091.5">
<defs>
<clipPath id="clip-0">
<path clip-rule="nonzero" d="M 0.371094 15 L 2703 15 L 2703 1091.109375 L 0.371094 1091.109375 Z M 0.371094 15 "/>
</clipPath>
<clipPath id="clip-1">
<path clip-rule="nonzero" d="M 0.371094 106 L 2747 106 L 2747 1091.109375 L 0.371094 1091.109375 Z M 0.371094 106 "/>
</clipPath>
<clipPath id="clip-2">
<path clip-rule="nonzero" d="M 0.371094 178 L 2845 178 L 2845 1091.109375 L 0.371094 1091.109375 Z M 0.371094 178 "/>
</clipPath>
</defs>
<g clip-path="url(#clip-0)">
<path fill-rule="evenodd" fill="rgb(97.851562%, 69.921875%, 42.601013%)" fill-opacity="1" d="M -85.632812 15.128906 C 9.375 98.648438 313.976562 67.429688 457.527344 144.726562 C 612.445312 228.144531 703.523438 417.6875 875.886719 470.722656 C 1047.289062 523.460938 1273.988281 367.851562 1473.550781 378.355469 C 1601.191406 385.074219 1761.21875 442.6875 1843.011719 546.789062 C 1884.640625 599.773438 1910.488281 659.925781 1973.410156 693.484375 C 2263.058594 847.96875 2488.46875 571.386719 2668.871094 992.316406 C 2737.648438 1152.804688 2705.421875 1181.164062 2538.46875 1236.8125 L -72.230469 1201.371094 L -85.632812 15.128906 "/>
</g>
<g clip-path="url(#clip-1)">
<path fill-rule="evenodd" fill="rgb(100%, 49.705505%, 0%)" fill-opacity="1" d="M -41.457031 106.882812 C 53.546875 190.398438 358.148438 159.179688 501.699219 236.476562 C 656.617188 319.894531 747.695312 509.4375 920.0625 562.472656 C 1091.460938 615.210938 1318.160156 459.601562 1517.71875 470.105469 C 1645.371094 476.824219 1805.390625 534.433594 1887.179688 638.535156 C 1928.808594 691.519531 1954.660156 751.675781 2017.578125 785.234375 C 2307.238281 939.71875 2532.640625 663.136719 2713.039062 1084.066406 C 2781.820312 1244.554688 2749.589844 1272.914062 2582.640625 1328.5625 L -28.058594 1293.121094 L -41.457031 106.882812 "/>
</g>
<g clip-path="url(#clip-2)">
<path fill-rule="evenodd" fill="rgb(0%, 0%, 0%)" fill-opacity="1" d="M 2804.691406 1158.757812 C 2796.761719 1160.019531 2790.699219 1166.890625 2790.699219 1175.167969 C 2790.699219 1184.335938 2798.140625 1191.78125 2807.308594 1191.78125 C 2817.738281 1191.78125 2826.449219 1186.921875 2832.828125 1176.824219 C 2838.160156 1168.382812 2841.820312 1154.628906 2843.21875 1137.421875 C 2848.261719 1075.515625 2827.609375 962.039062 2823.488281 944.503906 C 2817.550781 919.238281 2803.921875 900.582031 2786.070312 885.765625 C 2767.609375 870.449219 2744.410156 859.410156 2721.308594 849.015625 C 2700.101562 839.46875 2678.988281 830.566406 2663.199219 817.972656 C 2569.148438 742.953125 2471.101562 671.101562 2363.390625 649.90625 C 2291.761719 635.8125 2215.800781 643.621094 2133.808594 687.21875 C 2108.878906 700.476562 2077.738281 731.546875 2045.140625 767.523438 C 2006.421875 810.261719 1965.121094 859.933594 1928.980469 890.691406 C 1917.769531 900.222656 1907.191406 907.867188 1897.378906 912.488281 C 1890.980469 915.503906 1885.199219 917.359375 1879.960938 916.347656 C 1841.621094 908.933594 1809.710938 890.453125 1780.621094 867.246094 C 1745.210938 838.992188 1713.929688 803.8125 1681.148438 771.453125 C 1645.53125 736.289062 1608.121094 704.457031 1562.980469 686.453125 C 1522.691406 670.386719 1481.03125 668.09375 1439.019531 668.453125 C 1400.050781 668.785156 1360.800781 671.457031 1322.308594 665.378906 C 1292.808594 660.71875 1263.761719 650.757812 1235.730469 629.890625 C 1146.980469 563.816406 1081.589844 464.871094 998.3125 391.160156 C 960.652344 357.824219 919.460938 329.492188 871.371094 310.894531 C 837.644531 297.855469 803.304688 290.429688 768.53125 286.558594 C 701.117188 279.054688 632.035156 285.066406 562.761719 288.421875 C 496.832031 291.613281 430.707031 292.398438 365.773438 275.132812 C 317.789062 262.375 283.648438 225.703125 241.828125 202.671875 C 221.867188 191.675781 200.386719 183.421875 175.6875 180.796875 C 125.832031 175.492188 72.546875 189.632812 22.3125 189.617188 C 2.511719 189.613281 -16.785156 187.246094 -35.023438 179.585938 C -43.476562 176.03125 -53.226562 180.015625 -56.777344 188.46875 C -60.328125 196.921875 -56.347656 206.671875 -47.894531 210.222656 C -25.546875 219.609375 -1.960938 222.84375 22.300781 222.851562 C 71.394531 222.863281 123.449219 208.660156 172.171875 213.839844 C 192.21875 215.972656 209.59375 222.855469 225.796875 231.78125 C 269.941406 256.09375 306.582031 293.78125 357.234375 307.25 C 425.519531 325.40625 495.035156 324.972656 564.371094 321.613281 C 631.867188 318.347656 699.171875 312.273438 764.855469 319.585938 C 796.816406 323.140625 828.386719 329.90625 859.382812 341.890625 C 903.710938 359.035156 941.574219 385.316406 976.285156 416.042969 C 1060.25 490.367188 1126.398438 589.925781 1215.890625 656.546875 C 1248.679688 680.960938 1282.621094 692.75 1317.121094 698.199219 C 1357.421875 704.566406 1398.511719 702.03125 1439.300781 701.683594 C 1477.019531 701.359375 1514.5 702.898438 1550.671875 717.320312 C 1591.71875 733.695312 1625.398438 763.121094 1657.800781 795.105469 C 1691.410156 828.285156 1723.589844 864.253906 1759.898438 893.226562 C 1793.148438 919.753906 1829.820312 940.5 1873.648438 948.972656 C 1882.738281 950.730469 1892.75 949.742188 1903.460938 945.910156 C 1917.679688 940.816406 1933.671875 930.328125 1950.511719 916 C 1987.578125 884.460938 2030.058594 833.65625 2069.769531 789.835938 C 2099.261719 757.289062 2126.859375 728.554688 2149.410156 716.558594 C 2223.558594 677.132812 2292.199219 669.765625 2356.96875 682.511719 C 2459.761719 702.738281 2552.730469 772.363281 2642.480469 843.953125 C 2660.25 858.128906 2683.800781 868.570312 2707.671875 879.320312 C 2728 888.46875 2748.601562 897.859375 2764.851562 911.339844 C 2777.28125 921.660156 2787 934.511719 2791.140625 952.109375 C 2793.78125 963.324219 2803.53125 1015.660156 2808.25 1066.746094 C 2810.96875 1096.191406 2812.121094 1125.210938 2808.871094 1145.140625 C 2808.03125 1150.273438 2805.621094 1156.484375 2804.691406 1158.757812 "/>
</g>
</svg>
